#!OML:ASF I:\salsa\salsa 7_09\Patient 1\Session 1\dancerfemale.ASF
:FULLY-SPECIFIED
:DEGREES
1554
root 1.46053 16.1267 -5.86487 -176.463 159.786 179.472
lowerback 6.72517 -2.62815 -4.27442
upperback -8.19572 -3.68912 3.65519
thorax -12.1791 -1.15698 7.03643
lowerneck 3.47877 -5.29322 -11.3459
upperneck 12.7671 -7.65628 4.98908
head 3.89195 -4.11635 3.15686
rclavicle -1.03368e-014 2.78299e-014
rhumerus -15.381 13.9007 -73.9957
rradius 84.2997
rwrist -18.5124
rhand -1.52676 -314.916
rfingers 7.12502
rthumb 24.1272 16.581
lclavicle -1.03368e-014 2.78299e-014
lhumerus -43.043 -26.9382 122.416
lradius 87.4999
lwrist -14.7967
lhand -14.5049 -322.563
lfingers 7.12502
lthumb 11.6423 427.094
rfemur -7.28834 -13.2981 11.2536
rtibia 50.0098
rfoot -3.29706 -24.5261
rtoes 25.8131
lfemur -17.8439 7.55089 -30.9518
ltibia 29.2421
lfoot -49.141 40.2251
ltoes 18.3057
1555
root 1.35532 16.157 -5.94724 -176.624 162.339 178.246
lowerback 6.58586 -2.54439 -3.63391
upperback -8.21849 -3.44184 4.12969
thorax -12.1625 -1.0704 7.15468
lowerneck 2.65869 -4.62584 -10.9205
upperneck 13.721 -6.61023 4.31529
head 4.19427 -3.61364 2.89703
rclavicle -4.67144e-014 0
rhumerus -13.771 17.1523 -73.5802
rradius 84.5511
rwrist -19.3535
rhand -1.07101 -314.801
rfingers 7.12502
rthumb 24.5641 16.7553
lclavicle -4.67144e-014 0
lhumerus -43.9099 -26.9261 122.505
lradius 87.8714
lwrist -14.3847
lhand -12.6561 -323.276
lfingers 7.12502
lthumb 13.4246 426.272
rfemur -5.0048 -13.9934 12.1555
rtibia 46.2688
rfoot -4.2619 -23.426
rtoes 25.7742
lfemur -18.8947 7.519 -29.3828
ltibia 29.8649
lfoot -51.5965 41.0604
ltoes 19.1869
1556
root 1.23665 16.1846 -6.0301 -176.491 164.817 177.561
lowerback 6.23083 -2.42576 -3.46941
upperback -8.14432 -3.23488 4.34295
thorax -11.8863 -0.990814 7.23492
lowerneck 1.8615 -4.01786 -10.3618
upperneck 14.4983 -5.67101 3.8689
head 4.46023 -3.1489 2.6885
rclavicle 1.04362e-014 1.66979e-014
rhumerus -12.1769 20.1433 -73.3915
rradius 84.7172
rwrist -20.1389
rhand -0.690806 -315.008
rfingers 7.12502
rthumb 24.9285 16.5978
lclavicle 1.04362e-014 1.66979e-014
lhumerus -44.7782 -27.2636 122.306
lradius 88.4491
lwrist -13.69
lhand -11.2537 -323.285
lfingers 7.12502
lthumb 14.7761 426.169
rfemur -2.90818 -14.3812 12.6275
rtibia 42.143
rfoot -4.92375 -22.3331
rtoes 25.9309
lfemur -19.9879 7.83576 -28.3012
ltibia 30.4625
lfoot -53.6727 41.6731
ltoes 19.6409
1557
root 1.10384 16.2021 -6.11613 -176.257 167.137 177.097
lowerback 5.89712 -2.34102 -3.67168
upperback -8.0661 -3.12457 4.52452
thorax -11.5922 -0.92785 7.50653
lowerneck 1.3686 -3.39235 -9.84279
upperneck 14.9131 -4.75046 3.52811
head 4.57946 -2.68909 2.52954
rclavicle -2.36554e-014 0
rhumerus -10.7538 23.3498 -73.235
rradius 84.8808
rwrist -20.8939
rhand -0.690818 -315.478
rfingers 7.12502
rthumb 24.9285 16.128
lclavicle -2.36554e-014 0
lhumerus -45.4448 -26.9174 121.826
lradius 89.0399
lwrist -13.585
lhand -9.5877 -323.675
lfingers 7.12502
lthumb 16.3806 425.653
rfemur -0.966661 -14.6819 12.9923
rtibia 37.705
rfoot -5.27852 -21.1407
rtoes 26.1333
lfemur -21.1255 8.35647 -27.3885
ltibia 31.0832
lfoot -55.3453 42.2131
ltoes 20.564
1558
root 0.970072 16.219 -6.20603 -176.031 169.176 176.648
lowerback 5.6033 -2.33839 -3.75256
upperback -7.96886 -3.11975 4.62862
thorax -11.294 -0.9323 7.63903
lowerneck 1.23135 -2.77139 -9.32636
upperneck 14.9619 -3.88334 3.28588
head 4.54031 -2.24819 2.40641
rclavicle 5.15846e-014 -4.37326e-014
rhumerus -9.48438 26.7075 -73.0857
rradius 85.0249
rwrist -21.5634
rhand -1.06459 -316.045
rfingers 7.12502
rthumb 24.5703 15.512
lclavicle 5.15846e-014 -4.37326e-014
lhumerus -46.0112 -26.42 121.021
lradius 89.6659
lwrist -13.6924
lhand -8.05243 -324.38
lfingers 7.12502
lthumb 17.8584 424.82
rfemur 0.996986 -15.0227 13.3662
rtibia 33.1325
rfoot -6.28284 -19.3221
rtoes 28.2019
lfemur -22.2291 8.75513 -26.4406
ltibia 31.764
lfoot -56.8706 42.6278
ltoes 21.8849
1559
root 0.838396 16.2278 -6.30372 -175.853 170.989 176.107
lowerback 5.40477 -2.44605 -3.61395
upperback -7.84421 -3.24143 4.74375
thorax -11.0114 -1.01651 7.67923
lowerneck 1.11737 -2.12039 -8.90449
upperneck 14.973 -2.98195 3.08805
head 4.49289 -1.79289 2.31237
rclavicle -1.27222e-014 4.29375e-014
rhumerus -8.05076 30.2323 -72.9639
rradius 84.9636
rwrist -22.2418
rhand -1.3353 -316.634
rfingers 7.12502
rthumb 24.3108 14.8878
lclavicle -1.27222e-014 4.29375e-014
lhumerus -46.451 -25.8418 119.895
lradius 90.4028
lwrist -13.7498
lhand -7.33753 -324.941
lfingers 7.12502
lthumb 18.5462 424.194
rfemur 2.83725 -15.384 13.8583
rtibia 28.7064
rfoot -7.56976 -16.5087
rtoes 30.5692
lfemur -23.3628 8.96392 -25.3358
ltibia 32.6255
lfoot -58.4492 42.8906
ltoes 22.6227
1560
root 0.704559 16.2412 -6.41095 -175.774 172.712 175.275
lowerback 5.40714 -2.50937 -3.19252
upperback -7.67427 -3.26836 4.9452
thorax -10.8241 -1.06914 7.6527
lowerneck 0.69951 -1.52745 -8.62594
upperneck 15.2701 -2.13704 2.95673
head 4.59572 -1.3728 2.25719
rclavicle 1.76918e-014 -1.59028e-015
rhumerus -6.5618 33.5337 -72.7882
rradius 84.6301
rwrist -22.3936
rhand -1.82041 -317.232
rfingers 7.12502
rthumb 23.8456 14.2283
lclavicle 1.76918e-014 -1.59028e-015
lhumerus -46.7508 -25.0017 118.75
lradius 91.0543
lwrist -14.1428
lhand -7.15032 -325.661
lfingers 7.12502
lthumb 18.7262 423.458
rfemur 4.33779 -15.3123 14.799
rtibia 24.7213
rfoot -8.46185 -14.2897
rtoes 30.2007
lfemur -24.5789 9.77536 -23.9389
ltibia 33.6651
lfoot -59.0541 43.1053
ltoes 22.8454
1561
root 0.565658 16.2549 -6.52612 -175.851 174.457 174.322
lowerback 5.68672 -2.42188 -2.70883
upperback -7.42447 -3.08725 5.1495
thorax -10.7503 -1.01993 7.58242
lowerneck 0.171604 -1.04369 -8.40932
upperneck 15.6327 -1.43777 2.89786
head 4.75043 -1.02471 2.23072
rclavicle -4.91992e-014 6.0033e-014
rhumerus -5.20759 36.0485 -72.8109
rradius 84.154
rwrist -22.04
rhand -1.7273 -317.726
rfingers 7.12502
rthumb 23.9349 13.746
lclavicle -4.91992e-014 6.0033e-014
lhumerus -47.0253 -24.3042 117.668
lradius 91.6017
lwrist -14.6276
lhand -7.48585 -326.047
lfingers 7.12502
lthumb 18.4035 423.103
rfemur 5.46335 -14.1072 16.1582
rtibia 21.4893
rfoot -8.97963 -13.0879
rtoes 29.223
lfemur -25.7675 11.4457 -22.4644
ltibia 34.9145
lfoot -58.3138 43.1734
ltoes 23.4451
1562
root 0.433276 16.2539 -6.64381 -176.034 176.05 173.497
lowerback 6.09162 -2.2759 -2.21364
upperback -7.09608 -2.83787 5.20904
thorax -10.6786 -0.945615 7.33738
lowerneck -0.342699 -0.675251 -7.97495
upperneck 15.8702 -0.891807 2.72285
head 4.87395 -0.744038 2.12755
rclavicle 6.4605e-016 3.65764e-014
rhumerus -3.98805 37.8717 -73.1589
rradius 83.5202
rwrist -21.4716
rhand -1.85198 -317.93
rfingers 7.12502
rthumb 23.8154 13.5262
lclavicle 6.4605e-016 3.65764e-014
lhumerus -47.2319 -23.9186 116.439
lradius 92.1314
lwrist -14.7782
lhand -7.75413 -325.957
lfingers 7.12502
lthumb 18.1454 423.217
rfemur 6.16675 -12.1755 17.6364
rtibia 19.493
rfoot -10.2051 -12.4976
rtoes 29.7244
lfemur -26.9134 12.8737 -21.0722
ltibia 36.4957
lfoot -57.4456 42.9634
ltoes 25.2377
1563
root 0.313723 16.2357 -6.75662 -176.216 177.586 172.697
lowerback 6.34096 -2.04526 -1.3817
upperback -6.67889 -2.4565 5.02638
thorax -10.4474 -0.850908 6.59316
lowerneck -0.774379 -0.420257 -7.37615
upperneck 15.9068 -0.543978 2.72321
head 4.93357 -0.53783 2.04385
rclavicle 2.08724e-014 -3.65764e-014
rhumerus -2.4266 39.4008 -73.4479
rradius 82.4201
rwrist -21.4073
rhand -2.23552 -317.989
rfingers 7.12502
rthumb 23.4475 13.4197
lclavicle 2.08724e-014 -3.65764e-014
lhumerus -47.3886 -23.7474 115.084
lradius 92.5513
lwrist -14.7959
lhand -8.14559 -325.665
lfingers 7.12502
lthumb 17.7687 423.543
rfemur 6.52844 -10.8651 18.9171
rtibia 18.3216
rfoot -11.1929 -11.7197
rtoes 30.1848
lfemur -28.0189 14.0863 -19.6846
ltibia 38.2049
lfoot -56.7337 42.6743
ltoes 27.5723
